<svg xmlns="http://www.w3.org/2000/svg" width="53.28" height="53.28" viewBox="0 0 53.28 53.28">
  <defs>
    <style>
      .a {
        fill: #1a1a1a;
      }
    </style>
  </defs>
  <title>Asset 3</title>
  <g>
    <path class="a" d="M31.74,26.64a5.1,5.1,0,1,1-5.1-5.1A5.11,5.11,0,0,1,31.74,26.64Z"/>
    <path class="a" d="M38.56,17.62a4.58,4.58,0,0,0-1.14-1.76,4.8,4.8,0,0,0-1.76-1.15,8.56,8.56,0,0,0-2.84-.52c-1.61-.08-2.1-.09-6.18-.09s-4.57,0-6.18.09a8.56,8.56,0,0,0-2.84.52,5.12,5.12,0,0,0-2.91,2.91,8.56,8.56,0,0,0-.52,2.84c-.08,1.61-.09,2.09-.09,6.18s0,4.57.09,6.18a8.56,8.56,0,0,0,.52,2.84,4.8,4.8,0,0,0,1.15,1.76,4.58,4.58,0,0,0,1.76,1.14,8.49,8.49,0,0,0,2.84.53c1.61.07,2.09.09,6.18.09s4.57,0,6.18-.09a8.49,8.49,0,0,0,2.84-.53,5.05,5.05,0,0,0,2.9-2.9,8.49,8.49,0,0,0,.53-2.84c.07-1.61.09-2.1.09-6.18s0-4.57-.09-6.18A8.49,8.49,0,0,0,38.56,17.62ZM26.64,34.49a7.86,7.86,0,1,1,7.85-7.85A7.85,7.85,0,0,1,26.64,34.49ZM34.8,20.31a1.84,1.84,0,1,1,1.84-1.84A1.83,1.83,0,0,1,34.8,20.31Z"/>
    <path class="a" d="M26.64,0A26.64,26.64,0,1,0,53.28,26.64,26.64,26.64,0,0,0,26.64,0Zm15.2,33a11.08,11.08,0,0,1-.71,3.71,7.81,7.81,0,0,1-4.47,4.47,11.08,11.08,0,0,1-3.71.71c-1.64.08-2.16.1-6.31.1s-4.68,0-6.31-.1a11,11,0,0,1-3.71-.71,7.39,7.39,0,0,1-2.71-1.76,7.47,7.47,0,0,1-1.76-2.71A11.31,11.31,0,0,1,11.43,33c-.07-1.64-.09-2.16-.09-6.31s0-4.68.09-6.31a11.25,11.25,0,0,1,.72-3.71,7.77,7.77,0,0,1,4.47-4.47,11.25,11.25,0,0,1,3.71-.72c1.63-.07,2.15-.09,6.31-.09s4.67,0,6.31.09a11.31,11.31,0,0,1,3.71.72,7.47,7.47,0,0,1,2.71,1.76,7.39,7.39,0,0,1,1.76,2.71,11,11,0,0,1,.71,3.71c.08,1.63.1,2.15.1,6.31S41.92,31.31,41.84,33Z"/>
  </g>
</svg>
