<svg xmlns="http://www.w3.org/2000/svg" width="211.49" height="64.6" viewBox="0 0 211.49 64.6">
  <defs>
    <style>
      .a {
        fill: #fff;
      }

      .b {
        fill: #c1272d;
      }
    </style>
  </defs>
  <title>Asset 2</title>
  <g>
    <g>
      <path class="a" d="M22,.6l-.95,5.9h-5.7L10.79,34H4.14L8.74,6.5H3L4,.6Z"/>
      <path class="a" d="M23.09.6h6.85l-.15,15.05c0,2.3-.15,3.9-.2,6.35.6-2.35.95-3.9,1.5-5.6L36.29.6h6.2l.3,15.05c.05,2.15,0,4.25,0,6.35,1-3.95,1.15-4.85,1.7-6.75L48.94.6H55.1L43.74,34h-5.8L37.29,16.4c0-1.2,0-3.85.05-5.15-.5,2-.85,3.45-1.35,4.9L29.94,34H24.29Z"/>
      <path class="a" d="M65.29.6,59.69,34H53L58.59.6Z"/>
      <path class="a" d="M70.49.6h6.75l3.4,14.1c.25,1.1.55,3.05.8,5.05.3-2.35.5-4.8.85-7.15L84.24.6h5.7L84.34,34H79l-4.15-17.5c-.4-1.75-.7-3.8-.9-5.3-.25,2.3-.4,5.4-.75,7.35L70.59,34H64.94Z"/>
      <path class="a" d="M113.74.6a12.22,12.22,0,0,1,5.65,1.1c2.6,1.25,4,4.3,4,8.25,0,6.85-4.25,11.45-10.6,11.45h-3.4L107.34,34h-6.65L106.24.6Zm-1.1,15.25c2.65,0,4-2.15,4-6.1,0-2.55-.9-3.65-3-3.65H112l-1.65,9.75Z"/>
      <path class="a" d="M145.59.6l-.9,5.7H134l-1.25,7.8h8.7l-1,5.5h-8.65l-1.4,8.5h10.95l-1,5.85H122.79L128.34.6Z"/>
      <path class="a" d="M164.09,34h-6.8l-.25-7.3h-6.15l-2.6,7.3h-6.6L154.79.6h7Zm-7.25-13-.2-8.6V8.65l-.25,1.15L156,11l-.3,1.05L152.84,21Z"/>
      <path class="a" d="M179.29.6l-2,12,7.35-12h7.25l-8.3,12.75,3.9,20.6h-7.35l-2.25-15-2.15,3-2,12H167L172.59.6Z"/>
      <path class="a" d="M205.79,10.15c-.6-2.95-1.65-4.25-3.45-4.25a3,3,0,0,0-2.85,3.25A3.74,3.74,0,0,0,200,11c.6,1,1.5,1.75,3.85,3.3a19.71,19.71,0,0,1,4.4,3.5,8.32,8.32,0,0,1,2.1,5.75c0,6.5-4.3,11.1-10.4,11.1-5.75,0-9.15-3.55-9.75-10.1l5.9-1.15A6.57,6.57,0,0,0,197,26.9a3.83,3.83,0,0,0,3.2,1.75c2.1,0,3.35-1.45,3.35-3.85,0-1.8-.75-2.7-3.35-4.45-3.55-2.4-4.25-2.9-5.35-4.15a8.07,8.07,0,0,1-1.95-5.45c0-6.1,4.1-10.75,9.5-10.75,4.5,0,8.05,2.85,9.05,8.2Z"/>
    </g>
    <g>
      <path class="b" d="M13.23,44.6,12.63,48H6.75l-.84,5.09h4.83l-.54,3.33H5.37L4,64.6H0l3.33-20Z"/>
      <path class="b" d="M19.08,44.6l-3.36,20h-4l3.33-20Z"/>
      <path class="b" d="M27.3,44.6a6,6,0,0,1,3.45.81c1.26.78,2,2.46,2,4.59a6.9,6.9,0,0,1-1.53,4.61,4.29,4.29,0,0,1-1.92,1.29l1.62,8.7H26.52l-1-8H24.21l-1.35,8h-4l3.33-20Zm-1.56,8.84c2,0,2.94-1.19,2.94-3.5a1.91,1.91,0,0,0-2.1-2.19h-.9l-1,5.69Z"/>
      <path class="b" d="M46.83,44.6,46.29,48H39.9l-.75,4.67h5.22l-.6,3.3H38.58l-.84,5.1h6.57l-.63,3.51H33.15l3.33-20Z"/>
      <path class="b" d="M53,44.6h4.11l-.09,9c0,1.37-.09,2.33-.12,3.8.36-1.41.57-2.34.9-3.36L60.9,44.6h3.72l.18,9c0,1.29,0,2.54,0,3.8.57-2.37.69-2.91,1-4l2.67-8.78h3.69l-6.81,20H61.89L61.5,54.07c0-.72,0-2.3,0-3.09-.3,1.21-.51,2.08-.81,2.94L57.09,64.6H53.7Z"/>
      <path class="b" d="M82.08,64.6H78l-.15-4.38H74.16L72.6,64.6h-4l7.86-20h4.2Zm-4.35-7.8-.12-5.15V49.43l-.15.69-.24.71-.18.63L75.33,56.8Z"/>
      <path class="b" d="M91.2,44.6,88.44,61.09h5.13L93,64.6H83.85l3.33-20Z"/>
      <path class="b" d="M102.42,44.6l-1.23,7.19,4.41-7.19H110l-5,7.65,2.34,12.35H102.9l-1.35-9-1.29,1.8-1.2,7.2h-4l3.33-20Z"/>
      <path class="b" d="M116,44.6h4.11l-.09,9c0,1.37-.09,2.33-.12,3.8.36-1.41.57-2.34.9-3.36l3.12-9.47h3.72l.18,9c0,1.29,0,2.54,0,3.8.57-2.37.69-2.91,1-4l2.67-8.78h3.69l-6.81,20h-3.48l-.39-10.53c0-.72,0-2.3,0-3.09-.3,1.21-.51,2.08-.81,2.94L120.06,64.6h-3.39Z"/>
      <path class="b" d="M141.27,44.6l-3.36,20h-4l3.33-20Z"/>
      <path class="b" d="M154.11,44.6l-.57,3.54h-3.42L147.36,64.6h-4l2.76-16.46h-3.45l.6-3.54Z"/>
      <path class="b" d="M164,64.6h-4l1.44-8.52h-3.18l-1.41,8.52h-4l3.33-20h4l-1.35,8h3.15l1.35-8h4Z"/>
      <path class="b" d="M177.06,44.6h5.46l.36,10.46c0,.67.06,1.65,0,2.94A31.72,31.72,0,0,1,184,54.55l3.71-9.95h5.58L190,64.6h-3.92l1.59-9.45c.23-1.44.65-3.65,1.1-5.72-.21.51-.93,2.67-1.23,3.42L182.88,64.6h-2.67l-.66-10.16c-.06-1.06,0-3.78.06-5.34-.15,1-.57,4.13-.81,5.48l-1.68,10h-3.39Z"/>
      <path class="b" d="M206.81,44.6,206.27,48h-6.39l-.75,4.67h5.22l-.6,3.3h-5.19l-.83,5.1h6.56l-.63,3.51H193.14l3.32-20Z"/>
    </g>
  </g>
</svg>
