<svg xmlns="http://www.w3.org/2000/svg" width="53.28" height="53.28" viewBox="0 0 53.28 53.28">
  <defs>
    <style>
      .a {
        fill: #1a1a1a;
      }
    </style>
  </defs>
  <title>Asset 2</title>
  <path class="a" d="M26.64,0A26.64,26.64,0,1,0,53.28,26.64,26.64,26.64,0,0,0,26.64,0ZM38.8,20.77c0,.26,0,.53,0,.79,0,8.08-6.15,17.4-17.4,17.4h0a17.36,17.36,0,0,1-9.37-2.75,11.8,11.8,0,0,0,1.46.08,12.26,12.26,0,0,0,7.59-2.61,6.13,6.13,0,0,1-5.71-4.25,6.23,6.23,0,0,0,1.15.11,6.07,6.07,0,0,0,1.61-.21,6.12,6.12,0,0,1-4.9-6v-.08A6,6,0,0,0,16,24a6.13,6.13,0,0,1-1.9-8.16,17.36,17.36,0,0,0,12.61,6.38,5.75,5.75,0,0,1-.16-1.39,6.12,6.12,0,0,1,10.58-4.18A12.41,12.41,0,0,0,41,15.18a6.18,6.18,0,0,1-2.69,3.39,12.09,12.09,0,0,0,3.51-1A12.26,12.26,0,0,1,38.8,20.77Z"/>
</svg>
